<?xml version="1.0" standalone="no"?>
<!DOCTYPE svg PUBLIC "-//W3C//DTD SVG 20010904//EN"
 "http://www.w3.org/TR/2001/REC-SVG-20010904/DTD/svg10.dtd">
<svg version="1.0" xmlns="http://www.w3.org/2000/svg"
 width="694.000000pt" height="142.000000pt" viewBox="0 0 694.000000 142.000000"
 preserveAspectRatio="xMidYMid meet">
<metadata>
Created by potrace 1.16, written by Peter Selinger 2001-2019
</metadata>
<g transform="translate(0.000000,142.000000) scale(0.100000,-0.100000)"
fill="#fe4438" stroke="none">
<path d="M491 1344 c-219 -59 -355 -215 -397 -456 -29 -166 -2 -379 63 -501
39 -73 137 -168 211 -206 88 -45 162 -61 274 -61 113 0 184 13 250 46 40 21
51 22 68 12 11 -7 20 -16 20 -20 0 -5 66 -8 148 -8 l147 1 -94 89 c-89 84 -94
90 -78 107 30 34 76 147 93 228 24 119 15 324 -19 422 -63 178 -202 306 -378
348 -80 19 -237 18 -308 -1z m210 -204 c82 -16 134 -46 175 -101 87 -118 108
-348 47 -500 -14 -37 -17 -39 -33 -24 -13 12 -44 15 -153 15 -75 0 -137 -2
-137 -4 0 -2 37 -40 82 -84 46 -44 80 -83 77 -87 -3 -3 -31 -11 -61 -17 -141
-30 -284 58 -333 204 -23 67 -33 181 -24 271 21 211 110 310 300 336 4 1 30
-4 60 -9z"/>
<path d="M6193 1329 c-125 -24 -173 -93 -173 -246 l0 -73 -65 0 -65 0 0 -80 0
-80 65 0 65 0 0 -350 0 -350 115 0 115 0 0 350 0 350 130 0 130 0 0 -304 c0
-299 0 -304 23 -337 35 -52 89 -68 230 -68 l117 -1 0 90 0 90 -60 0 c-48 0
-61 4 -70 19 -6 12 -10 114 -10 260 l0 241 70 0 70 0 0 85 0 85 -70 0 -70 0 0
125 0 125 -115 0 -115 0 0 -125 0 -125 -131 0 -132 0 5 50 c7 69 19 80 89 80
l59 0 0 94 c0 76 -3 95 -16 100 -22 8 -140 6 -191 -5z"/>
<path d="M3680 735 l0 -585 120 0 120 0 0 138 0 138 43 42 43 42 100 -178 100
-177 143 -3 c125 -2 143 -1 138 13 -4 8 -73 126 -154 262 -81 137 -148 253
-148 260 0 6 65 80 145 163 80 84 147 157 148 161 2 5 -61 9 -141 9 l-144 0
-134 -154 -134 -154 -3 304 -2 304 -120 0 -120 0 0 -585z"/>
<path d="M2525 1039 c-247 -29 -379 -214 -362 -508 9 -157 59 -259 160 -326
80 -53 150 -77 247 -82 139 -9 255 27 340 103 47 43 100 128 100 162 0 22 -2
22 -115 22 l-116 0 -37 -39 c-61 -64 -153 -76 -240 -32 -21 10 -45 27 -54 38
-23 25 -48 86 -48 118 l0 25 315 0 315 0 0 39 c0 193 -75 357 -194 426 -80 46
-201 67 -311 54z m138 -203 c21 -8 48 -22 59 -33 21 -18 57 -88 58 -110 0 -10
-44 -13 -185 -13 -200 0 -196 -1 -176 53 16 40 71 96 105 106 45 13 96 12 139
-3z"/>
<path d="M3452 1014 c-33 -16 -66 -44 -87 -72 l-35 -45 0 62 0 61 -115 0 -115
0 0 -435 0 -435 120 0 120 0 0 241 c0 139 5 258 11 283 21 84 85 126 194 126
l65 0 0 120 0 120 -53 0 c-37 0 -69 -8 -105 -26z"/>
<path d="M4894 1016 c-34 -16 -64 -40 -88 -71 l-36 -48 0 62 0 61 -115 0 -115
0 0 -435 0 -435 120 0 119 0 3 263 c3 242 5 265 24 302 29 57 87 85 176 85
l68 0 0 120 0 120 -52 0 c-35 0 -71 -9 -104 -24z"/>
<path d="M5318 1025 c-128 -35 -216 -139 -218 -257 l0 -38 109 0 109 0 12 34
c18 57 52 80 123 84 109 7 177 -41 149 -104 -16 -34 -57 -49 -190 -68 -150
-22 -215 -47 -273 -105 -53 -52 -69 -95 -69 -186 0 -93 16 -134 71 -187 62
-60 132 -83 231 -75 78 7 133 29 201 80 45 35 47 36 47 14 0 -12 3 -32 6 -45
6 -21 10 -22 135 -22 114 0 129 2 129 17 0 9 -10 27 -22 41 -23 23 -23 29 -28
340 -4 271 -7 321 -22 347 -37 66 -92 103 -195 130 -70 18 -239 18 -305 0z
m292 -507 c-1 -100 -29 -157 -96 -195 -47 -27 -138 -31 -171 -8 -32 23 -47 77
-33 120 15 45 62 70 172 91 46 9 90 20 98 25 26 15 30 10 30 -33z"/>
<path d="M1302 673 c3 -342 3 -349 26 -395 49 -98 140 -148 268 -148 90 0 156
25 216 81 l50 47 -4 -54 -3 -54 113 0 112 0 0 435 0 435 -114 0 -114 0 -4
-277 c-3 -266 -5 -280 -26 -325 -30 -62 -77 -91 -146 -92 -35 0 -62 6 -80 18
-52 34 -56 59 -56 381 l0 295 -121 0 -120 0 3 -347z"/>
</g>
</svg>
