<?xml version="1.0" standalone="no"?>
<!DOCTYPE svg PUBLIC "-//W3C//DTD SVG 20010904//EN"
 "http://www.w3.org/TR/2001/REC-SVG-20010904/DTD/svg10.dtd">
<svg version="1.0" xmlns="http://www.w3.org/2000/svg"
 width="227.000000pt" height="249.000000pt" viewBox="0 0 227.000000 249.000000"
 preserveAspectRatio="xMidYMid meet">
<metadata>
Created by potrace 1.16, written by Peter Selinger 2001-2019
</metadata>
<g transform="translate(0.000000,249.000000) scale(0.100000,-0.100000)"
fill="#fe4438" stroke="none">
<path d="M885 2369 c-72 -11 -166 -41 -260 -84 -217 -100 -390 -291 -481 -530
-94 -251 -111 -609 -42 -910 48 -207 118 -333 265 -476 215 -208 401 -279 738
-279 186 0 300 18 415 67 118 49 139 51 180 17 l33 -28 271 -4 271 -3 -168
163 c-92 90 -167 169 -167 176 0 8 8 26 19 40 60 86 142 302 167 441 20 116
20 420 -1 566 -33 238 -124 418 -295 585 -142 140 -331 233 -523 259 -91 13
-335 12 -422 0z m420 -430 c190 -67 303 -234 351 -520 31 -185 8 -423 -55
-565 l-20 -45 -28 18 c-24 16 -57 18 -285 21 -142 2 -258 0 -258 -4 0 -4 65
-74 145 -155 80 -81 145 -152 145 -157 0 -14 -143 -42 -213 -42 -186 0 -378
128 -466 311 -60 126 -76 218 -76 439 1 201 12 273 61 396 77 197 229 308 469
347 30 5 162 -21 230 -44z"/>
</g>
</svg>
